<svg width="75" height="75" fill="none" xmlns="http://www.w3.org/2000/svg"><path d="M37.5 75C58.21 75 75 58.21 75 37.5S58.21 0 37.5 0 0 16.79 0 37.5 16.79 75 37.5 75z" fill="url(#paint0_radial)"/><path d="M38 73c19.33 0 35-15.67 35-35S57.33 3 38 3 3 18.67 3 38s15.67 35 35 35z" fill="url(#paint1_radial)"/><path d="M55.844 44.847c-4.046 0-7.903-.881-11.461-2.62a2.383 2.383 0 00-1.796-.108 2.364 2.364 0 00-1.345 1.195l-1.687 3.492A33.005 33.005 0 0127.38 34.633l3.497-1.688a2.348 2.348 0 001.088-3.14c-1.744-3.553-2.625-7.411-2.625-11.461A2.345 2.345 0 0026.997 16h-8.653A2.345 2.345 0 0016 18.344c0 21.97 17.873 39.843 39.844 39.843a2.345 2.345 0 002.343-2.343V47.19a2.345 2.345 0 00-2.343-2.344z" fill="#FAFAFA"/><defs><radialGradient id="paint0_radial" cx="0" cy="0" r="1" gradientUnits="userSpaceOnUse" gradientTransform="rotate(139.208 48.53 11.337) scale(139.398)"><stop offset=".388" stop-color="#F32121" stop-opacity=".62"/><stop offset=".454" stop-color="#F3216D"/><stop offset=".915" stop-color="#FF6D6D" stop-opacity="0"/></radialGradient><radialGradient id="paint1_radial" cx="0" cy="0" r="1" gradientUnits="userSpaceOnUse" gradientTransform="rotate(139.208 46.237 12.639) scale(130.105)"><stop offset=".215" stop-color="#F32121" stop-opacity=".62"/><stop offset=".454" stop-color="#F321AC"/><stop offset=".711" stop-color="#FF6D6D"/></radialGradient></defs></svg>