<svg width="40" height="40" fill="none" xmlns="http://www.w3.org/2000/svg"><path d="M35.625 14.375h-1.89a13.75 13.75 0 00-27.47 0h-1.89A3.129 3.129 0 001.25 17.5v5a3.129 3.129 0 003.125 3.125h2.5A1.875 1.875 0 008.75 23.75v-7.5a1.875 1.875 0 00-1.224-1.75 12.484 12.484 0 0124.948 0 1.874 1.874 0 00-1.224 1.75v7.5a1.875 1.875 0 001.25 1.76v1.99a8.128 8.128 0 01-7.597 8.098A2.5 2.5 0 0022.5 33.75h-5a2.5 2.5 0 000 5h5a2.5 2.5 0 002.42-1.903 9.379 9.379 0 008.83-9.347v-1.875h1.875A3.129 3.129 0 0038.75 22.5v-5a3.129 3.129 0 00-3.125-3.125zM5 24.375h-.625A1.875 1.875 0 012.5 22.5v-5a1.875 1.875 0 011.875-1.875H5v8.75zm2.5-.625a.625.625 0 01-.625.625H6.25v-8.75h.625a.625.625 0 01.625.625v7.5zm15 13.75h-5a1.25 1.25 0 010-2.5h5a1.25 1.25 0 010 2.5zm11.25-13.125h-.625a.624.624 0 01-.625-.625v-7.5a.624.624 0 01.625-.625h.625v8.75zM37.5 22.5a1.875 1.875 0 01-1.875 1.875H35v-8.75h.625A1.875 1.875 0 0137.5 17.5v5z" fill="#5A5A5A"/><path d="M28.75 20A8.75 8.75 0 1020 28.75 8.759 8.759 0 0028.75 20zM12.5 20a7.5 7.5 0 117.5 7.5 7.508 7.508 0 01-7.5-7.5z" fill="#5A5A5A"/><path d="M24.817 16.067l-.884-.884L20 19.116l-2.058-2.058-.884.884L20 20.884l4.817-4.817z" fill="#5A5A5A"/></svg>