<svg width="50" height="50" fill="none" xmlns="http://www.w3.org/2000/svg"><path d="M50 25c0 13.807-11.193 25-25 25S0 38.807 0 25 11.193 0 25 0s25 11.193 25 25z" fill="#4A7AFF"/><path d="M26.097 49.974C39.395 49.4 50 38.44 50 25c0-.097-.003-.194-.004-.291L32.643 7.355 14.088 26.749l10.31 10.309-4.754 6.463 6.453 6.453z" fill="#0053BF"/><path d="M32.643 7.355v5.66s-6.5-.943-6.5 3.25v4.194h5.87l-.733 6.394h-5.137v16.668h-6.5V26.853l-5.555-.105v-6.29h5.45v-4.821s-.359-7.174 6.71-8.492c2.935-.547 6.395.21 6.395.21z" fill="#fff"/><path d="M32.643 13.016V7.355s-3.46-.757-6.395-.21a9.913 9.913 0 00-1.283.327v36.05h1.178v-16.67h5.137l.734-6.394h-5.87v-4.194c0-4.193 6.499-3.25 6.499-3.25z" fill="#DCE1EB"/></svg>