<svg width="50" height="50" fill="none" xmlns="http://www.w3.org/2000/svg"><path d="M25 50c13.807 0 25-11.193 25-25S38.807 0 25 0 0 11.193 0 25s11.193 25 25 25z" fill="url(#paint0_radial)"/><path d="M36.593 12.98c-2.987.379-6.102.366-9.236.067-4.377-.337-10.774-2.357-13.131 1.684-3.787 6.468-1.92 14.75-1.037 22.078l13.158 13.155c12.733-.676 22.938-10.88 23.616-23.613l-13.37-13.37z" fill="url(#paint1_radial)"/><path d="M30.784 10.69H19.216c-4.701 0-8.526 3.825-8.526 8.526v11.568c0 4.7 3.825 8.526 8.526 8.526h11.568c4.7 0 8.526-3.825 8.526-8.526V19.216c0-4.701-3.825-8.526-8.526-8.526zm5.647 20.094a5.647 5.647 0 01-5.647 5.647H19.216a5.647 5.647 0 01-5.647-5.647V19.216a5.647 5.647 0 015.647-5.647h11.568a5.647 5.647 0 015.647 5.647v11.568z" fill="#fff"/><path d="M25 17.598c-4.081 0-7.402 3.32-7.402 7.402 0 4.081 3.32 7.402 7.402 7.402 4.081 0 7.402-3.32 7.402-7.402 0-4.081-3.32-7.402-7.402-7.402zm0 11.925a4.523 4.523 0 110-9.046 4.523 4.523 0 010 9.046z" fill="#fff"/><path d="M34.19 17.654a1.774 1.774 0 11-3.548 0 1.774 1.774 0 013.548 0z" fill="#D1D1D1"/><path d="M30.784 10.69h-5.84v2.88h5.84a5.647 5.647 0 015.647 5.646v11.568a5.647 5.647 0 01-5.647 5.647h-5.84v2.879h5.84c4.701 0 8.526-3.825 8.526-8.526V19.216c0-4.701-3.825-8.526-8.526-8.526z" fill="#D1D1D1"/><path d="M25 17.598l-.056.001v2.88l.056-.002a4.523 4.523 0 110 9.046l-.056-.002v2.88H25c4.081 0 7.402-3.32 7.402-7.401 0-4.081-3.32-7.402-7.402-7.402z" fill="#D1D1D1"/><defs><radialGradient id="paint0_radial" cx="0" cy="0" r="1" gradientUnits="userSpaceOnUse" gradientTransform="matrix(74.49998 -97.5001 428.65481 327.5358 14 50)"><stop stop-color="#EDFF21"/><stop offset=".194" stop-color="#FF3232"/><stop offset=".407" stop-color="#6C27B3"/></radialGradient><radialGradient id="paint1_radial" cx="0" cy="0" r="1" gradientUnits="userSpaceOnUse" gradientTransform="rotate(138.171 59.076 -4.642) scale(134.202 135.275)"><stop offset=".611" stop-color="#501A96"/><stop offset="1" stop-color="#501A96" stop-opacity="0"/></radialGradient></defs></svg>