<svg width="40" height="40" fill="none" xmlns="http://www.w3.org/2000/svg"><g clip-path="url(#clip0)"><path d="M20 40c11.045 0 20-8.954 20-20S31.044 0 20 0C8.954 0 0 8.954 0 20s8.954 20 20 20z" fill="#41B4E6"/><path d="M40 20c0-.487-.018-.97-.053-1.449l-8.289-8.288-23.316 9.171 8.92 8.922.118.42.151-.152-.151.153 9.868 9.868C34.711 35.742 40 28.49 40 20z" fill="#0091C8"/><path d="M18.058 22.914l9.038 6.824 4.563-19.476-23.317 9.172 7.095 2.35L28.385 13.1l-10.327 9.815z" fill="#fff"/><path d="M15.437 21.784l1.943 6.993.678-5.863L28.385 13.1l-12.949 8.685z" fill="#D2D2D7"/><path d="M20.995 25.132l-3.615 3.645.678-5.863 2.937 2.218z" fill="#B9B9BE"/></g><defs><clipPath id="clip0"><path fill="#fff" d="M0 0h40v40H0z"/></clipPath></defs></svg>