<svg width="40" height="40" fill="none" xmlns="http://www.w3.org/2000/svg"><path d="M20 40c11.046 0 20-8.954 20-20S31.046 0 20 0 0 8.954 0 20s8.954 20 20 20z" fill="#6F3FAA"/><path d="M28.677 10.972c-4.869-1.176-9.745-2.551-14.738-.804-3.232 1.212-3.232 4.714-3.097 7.677 0 .808-.943 1.886-.54 2.829.809 2.693 1.482 5.387 4.31 6.733.405.27 0 .808.27 1.212-.135 0-.404.135-.404.27 0 .645.29 1.633.097 2.27l8.594 8.59c8.836-1.407 15.741-8.599 16.713-17.572L28.677 10.972z" fill="#512D84"/><path d="M30.58 14.056l-.006-.026c-.535-2.16-2.944-4.478-5.156-4.96l-.025-.006a28.654 28.654 0 00-10.785 0l-.026.005c-2.212.483-4.621 2.8-5.156 4.961l-.006.027a21.11 21.11 0 000 9.093l.006.027c.512 2.068 2.742 4.28 4.872 4.888v2.411c0 .873 1.064 1.302 1.668.672l2.444-2.54a28.742 28.742 0 006.983-.466l.024-.005c2.213-.482 4.622-2.8 5.157-4.96l.006-.027c.66-3.017.66-6.076 0-9.093zm-1.933 8.657c-.357 1.41-2.186 3.161-3.64 3.485-1.903.362-3.82.517-5.737.464a.135.135 0 00-.1.04l-1.785 1.832-1.897 1.948a.222.222 0 01-.383-.154v-3.995a.138.138 0 00-.112-.135c-1.454-.324-3.283-2.076-3.64-3.485a19.156 19.156 0 010-8.219c.357-1.41 2.186-3.162 3.64-3.485a26.683 26.683 0 0110.014 0c1.454.323 3.283 2.076 3.64 3.485a19.134 19.134 0 010 8.219z" fill="#fff"/><path d="M23.162 24.557c-.224-.068-.437-.114-.635-.195-2.049-.85-3.935-1.948-5.429-3.63-.85-.955-1.514-2.034-2.076-3.177-.267-.542-.491-1.104-.72-1.664-.209-.51.098-1.037.422-1.421.304-.36.695-.637 1.118-.84.331-.16.657-.068.898.212.522.606 1.001 1.243 1.39 1.945.238.431.173.96-.26 1.253-.105.072-.201.156-.299.236a.986.986 0 00-.226.238.651.651 0 00-.043.572c.533 1.466 1.432 2.606 2.908 3.22.236.098.473.212.745.18.455-.053.603-.552.922-.814.312-.255.71-.258 1.047-.045.336.213.662.44.986.672.318.226.634.448.927.706.282.248.38.574.22.911-.29.617-.713 1.13-1.323 1.459-.172.092-.378.122-.572.182-.224-.068.194-.06 0 0zm-3.156-11.633c2.68.075 4.882 1.854 5.353 4.504.08.451.11.913.145 1.371.015.193-.094.376-.302.379-.215.002-.312-.178-.326-.37-.027-.381-.046-.765-.099-1.143-.277-1.997-1.87-3.648-3.857-4.003-.3-.053-.605-.067-.908-.1-.192-.02-.442-.03-.485-.269-.035-.2.133-.358.323-.369.052-.003.104 0 .155 0 2.681.075-.051 0 0 0z" fill="#fff"/><path d="M24.08 18.205c-.005.033-.008.112-.027.186-.071.269-.48.303-.573.031a.811.811 0 01-.033-.259c0-.567-.124-1.135-.41-1.629a3.031 3.031 0 00-1.271-1.192 3.65 3.65 0 00-1.014-.311c-.152-.026-.307-.04-.46-.062-.186-.026-.286-.145-.277-.328a.288.288 0 01.321-.285c.615.035 1.21.168 1.756.458 1.112.589 1.748 1.518 1.933 2.76.009.056.022.112.026.168.01.14.017.279.028.463-.005.033-.01-.184 0 0z" fill="#fff"/><path d="M22.412 18.14c-.224.004-.344-.12-.367-.326-.017-.143-.03-.288-.064-.428a1.204 1.204 0 00-.444-.698 1.161 1.161 0 00-.362-.174c-.165-.048-.336-.035-.5-.075-.178-.044-.276-.188-.248-.355a.322.322 0 01.34-.26c1.039.076 1.781.613 1.887 1.836.008.087.017.178-.003.26-.032.142-.137.213-.24.22-.224.004.103-.007 0 0z" fill="#fff"/><path d="M30.58 14.056l-.006-.026c-.3-1.21-1.189-2.471-2.302-3.43l-1.504 1.333c.894.713 1.66 1.7 1.879 2.561a19.135 19.135 0 010 8.219c-.357 1.41-2.186 3.161-3.64 3.485-1.902.362-3.82.517-5.736.464a.135.135 0 00-.102.04c-.271.28-1.784 1.832-1.784 1.832l-1.897 1.948a.222.222 0 01-.382-.154v-3.995a.138.138 0 00-.112-.135h-.002c-.826-.184-1.772-.83-2.502-1.61l-1.486 1.316c.928 1.01 2.126 1.827 3.294 2.16v2.412c0 .873 1.064 1.302 1.668.672l2.444-2.54a28.757 28.757 0 006.983-.465l.024-.005c2.213-.483 4.622-2.8 5.157-4.961l.006-.026c.66-3.018.66-6.077 0-9.095z" fill="#D1D1D1"/><path d="M23.162 24.557c.194-.06-.224-.068 0 0z" fill="#fff"/><path d="M24.838 22.005c-.293-.258-.61-.48-.928-.706-.324-.231-.65-.46-.986-.672-.336-.213-.735-.21-1.046.045-.32.261-.467.761-.923.814-.272.032-.509-.082-.745-.18a4.82 4.82 0 01-2.117-1.685l-1.106.98c.037.044.073.089.111.132 1.494 1.681 3.38 2.778 5.43 3.628.197.082.41.128.634.196-.224-.068.194-.06 0 0 .194-.06.4-.09.572-.183.61-.327 1.033-.84 1.324-1.458.159-.337.062-.663-.22-.91z" fill="#D1D1D1"/><path d="M20.012 12.924zm-.007 0h.007c.149.006 2.568.072-.007 0z" fill="#fff"/><path d="M23.85 14.518l-.471.418a4.733 4.733 0 011.398 2.73c.053.377.072.76.1 1.142.014.192.11.372.325.37.208-.003.317-.186.302-.379-.036-.458-.064-.92-.145-1.371a5.383 5.383 0 00-1.509-2.91zm.175 3.055c-.135-.904-.51-1.642-1.133-2.205l-.47.417c.242.216.453.47.615.75.286.493.41 1.06.41 1.628a.81.81 0 00.033.26c.094.27.502.237.573-.032.02-.074.022-.153.026-.186-.004.033-.01-.184 0 0-.01-.184-.017-.324-.028-.463-.004-.057-.017-.112-.026-.169z" fill="#D1D1D1"/><path d="M24.08 18.205c-.011-.184-.005.033 0 0zm-1.668-.066l.01-.002h-.039l.029.002z" fill="#fff"/><path d="M22.412 18.139l-.029-.001a.756.756 0 00.03 0zm.01-.002l-.01.002c.026-.001.024-.002.01-.002z" fill="#fff"/><path d="M21.939 16.213l-.48.424c.027.016.053.033.078.051.231.169.377.423.445.698.034.14.047.285.063.428.022.196.133.317.338.324h.04a.266.266 0 00.229-.218c.019-.082.01-.173.002-.26-.06-.684-.318-1.153-.715-1.447z" fill="#D1D1D1"/></svg>