<svg width="40" height="40" fill="none" xmlns="http://www.w3.org/2000/svg"><path d="M20 40c11.046 0 20-8.954 20-20S31.046 0 20 0 0 8.954 0 20s8.954 20 20 20z" fill="#75B73B"/><path d="M28.144 11.861c-1.16-.29-2.865-1.291-3.969-1.693-4.31-1.346-10.1-.269-11.717 4.714-.135.135-.404.135-.539.135-3.232 3.77-1.077 8.35-1.347 12.525-.092 1.472-.865 2.773-1.861 3.874l8.381 8.373c.95.138 1.92.211 2.908.211 9.878 0 18.082-7.161 19.707-16.575L28.144 11.86z" fill="#52891D"/><path d="M19.44 8.472c-6.096.29-10.906 5.367-10.888 11.47a11.398 11.398 0 001.246 5.164l-1.215 5.9a.446.446 0 00.539.523l5.78-1.37a11.393 11.393 0 004.92 1.194c6.23.095 11.426-4.852 11.62-11.08.208-6.676-5.302-12.12-12.002-11.8zm6.898 17.773A8.905 8.905 0 0120 28.87a8.87 8.87 0 01-3.99-.934l-.804-.402-3.545.84.746-3.622-.396-.776a8.863 8.863 0 01-.975-4.07c0-2.394.933-4.645 2.626-6.338A8.979 8.979 0 0120 10.943c2.394 0 4.645.932 6.338 2.625a8.905 8.905 0 012.625 6.338 8.98 8.98 0 01-2.625 6.339z" fill="#fff"/><path d="M25.556 22.39l-2.218-.637a.827.827 0 00-.817.215l-.543.552a.807.807 0 01-.878.186c-1.049-.424-3.256-2.386-3.819-3.368a.808.808 0 01.064-.895l.473-.613a.827.827 0 00.102-.84l-.933-2.11a.827.827 0 00-1.29-.295c-.62.524-1.354 1.319-1.443 2.2-.157 1.554.509 3.512 3.028 5.864 2.911 2.717 5.242 3.076 6.76 2.708.86-.208 1.549-1.044 1.983-1.729a.827.827 0 00-.47-1.239z" fill="#fff"/><path d="M27.813 11.54l-1.736 1.78a8.905 8.905 0 012.887 6.587 8.98 8.98 0 01-2.626 6.338A8.905 8.905 0 0120 28.87a8.871 8.871 0 01-3.99-.934l-.804-.401-3.545.84.074-.357-3.139 3.217c.07.208.29.35.526.294l5.78-1.37a11.39 11.39 0 004.92 1.194c6.23.095 11.426-4.852 11.62-11.08a11.419 11.419 0 00-3.63-8.733z" fill="#D1D1D1"/><path d="M25.556 22.39l-2.218-.637a.827.827 0 00-.818.215l-.542.552a.807.807 0 01-.878.186c-.606-.245-1.598-1.003-2.436-1.79l-1.542 1.58.16.153c2.91 2.717 5.242 3.076 6.76 2.708.86-.208 1.549-1.044 1.983-1.729a.827.827 0 00-.47-1.239z" fill="#D1D1D1"/></svg>