<svg width="50" height="50" fill="none" xmlns="http://www.w3.org/2000/svg"><path d="M25 50c13.807 0 25-11.193 25-25S38.807 0 25 0 0 11.193 0 25s11.193 25 25 25z" fill="#D22215"/><path d="M37.584 16.635c-.75.228-1.532.425-2.315.62-5.555 1.18-12.963-2.02-16.161 3.2-2.668 4.15-3.51 9.342-6.545 13.053l16.21 16.209c10.787-1.633 19.313-10.16 20.944-20.948L37.584 16.634z" fill="#A81411"/><path d="M33.364 14.876H16.636a5.943 5.943 0 00-5.943 5.943v8.362a5.943 5.943 0 005.943 5.943h16.728a5.943 5.943 0 005.943-5.943V20.82a5.943 5.943 0 00-5.943-5.943zm-4.019 10.53l-7.824 3.733a.314.314 0 01-.45-.284V21.16c0-.235.248-.387.456-.28l7.825 3.964a.314.314 0 01-.007.564z" fill="#fff"/><path d="M33.364 14.876h-8.532v7.676l4.52 2.291a.314.314 0 01-.007.564l-4.513 2.153v7.564h8.532a5.943 5.943 0 005.943-5.943V20.82a5.943 5.943 0 00-5.943-5.943z" fill="#D1D1D1"/></svg>