<svg width="60" height="60" fill="none" xmlns="http://www.w3.org/2000/svg"><path d="M31.19 23.976C26.899 18.42 29.475 2.481 25.612 1.52 22.178.63 11.531 6.708 6.296 14.787 1.058 22.867-5.38 34.946 7.67 42.583c7.123 4.742-2.06 6.966-3.692 3.187-.152 7.686 8.593 7.884 9.872 2.445.89-3.787-4.44-11.73-6.094-15.566-4.036-9.338 7.897-21.866 7.897-21.866S5.008 25.905 9.3 33.243c14.68 18.679 4.908 18.234 1.115 20.46 14.337.592 19.265-10.325 20.089-11.787 1.886-4.373.728-12.156-3.95-15.86-1.115-.853-2.145.184-6.03 0-3.886-.187-1.782-3.336-1.782-3.336s-1.34-.983-1.374-1.408c-.032-.425 1.2-.741 1.2-.741s-1.202-.557-1.287-1.038c-.084-.485 1.29-1.633 1.29-1.633s-1.814-.723-1.848-1.446c-.032-.722 1.98-1.915 3.906-5.373 1.459-2.613 1.374-6.967 3.691-7.969 1.374 2.04-4.29 17.605 4.98 22.571 1.716.815 12.705 8.227 3.69 17.788 9.96-6.003.9-16.072-1.8-19.495z" fill="#fff"/><path d="M38.487.48c4.292 4.376-.087 20.905 10.044 26.388 13.732 8.45 4.053 19.843 2.06 22.905 3.434-8.598 3.177-13.046 1.544-16.529-1.633-3.482-11.931-12.748-13.562-17.42-1.63-4.67-2.147-17.563-10.049-15.216 7.303 7.955 2.88 15.248 12.838 26.186 9.957 10.937 7.938 26.313-.384 29.868 13.004-14.86 1.544-26.46-1.804-31.057-1.77-2.431-5.492-4.446-5.837-10.077C32.994 9.893 28.46.145 26.642.704c4.721 8.08-.172 19.42 10.386 30.316 7.21 6.819 10.39 21.643-1.799 28.98 12.79-.445 20.172-12.228 23.261-19.865 4.12-10.599-7.64-19.713-9.871-23.42C46.386 13.004 45.182.556 38.487.48z" fill="#fff"/><path d="M54.968 12.45c-4.12-5.67-9.835-8.994-11.97-10.394 5.854 8.727 5.466 12.618 7.59 15.289 2.126 2.667 5.86 3.28 9.402 12.82.127-1.357-.902-12.042-5.022-17.714zM37.553 6.783c.289 1.386 1.704 8.559 2.8 9.894-.706-8.782.26-8.283-.579-11.563C38.935 1.833 37.455.054 32.563 0c4.892 3.557 4.7 5.396 4.99 6.783z" fill="#fff"/></svg>