<svg width="60" height="60" fill="none" xmlns="http://www.w3.org/2000/svg"><path d="M30 0C13.458 0 0 13.458 0 30s13.458 30 30 30 30-13.458 30-30S46.542 0 30 0zm0 57.273C14.961 57.273 2.727 45.038 2.727 30S14.961 2.727 30 2.727c15.038 0 27.273 12.235 27.273 27.273S45.038 57.273 30 57.273z" fill="#fff"/><path d="M30 5.318C16.39 5.318 5.318 16.39 5.318 30S16.39 54.682 30 54.682 54.682 43.61 54.682 30 43.61 5.318 30 5.318zm0 48.546C16.841 53.864 6.136 43.159 6.136 30S16.841 6.136 30 6.136c13.158 0 23.864 10.705 23.864 23.864S43.158 53.864 30 53.864z" fill="#fff"/><path d="M27.104 30.581h4.629l1.162-1.162h-4.628l-1.163 1.162zM30 42c-.09 0-.178-.002-.268-.007-1.57-.08-2.85-1.02-3.426-2.515-.466-1.211-.471-2.998.911-4.381l1.279-1.278h-4.453c-1.376 1.981-1.692 4.495-.791 6.835 1.038 2.697 3.458 4.463 6.313 4.608.144.007.289.01.435.01 4.662 0 8.455-3.792 8.455-8.453h-3.273A5.187 5.187 0 0130 42zm0-24c.09 0 .178.002.268.007 1.57.08 2.85 1.02 3.426 2.515.466 1.211.471 2.999-.911 4.381l-1.279 1.279h4.453c1.376-1.982 1.692-4.495.791-6.835-1.038-2.698-3.458-4.464-6.313-4.608a8.491 8.491 0 00-.435-.012c-4.662 0-8.455 3.793-8.455 8.455h3.273A5.188 5.188 0 0130 18zm7.773 13.127H22.227v2.146h15.546v-2.146zm0-4.4H22.227v2.146h15.546v-2.146z" fill="#fff"/></svg>