<svg width="50" height="50" fill="none" xmlns="http://www.w3.org/2000/svg"><path d="M41.26 26.427a.728.728 0 00-.728.728.925.925 0 01-1.847 0 .728.728 0 10-1.456 0 2.382 2.382 0 002.38 2.379 2.382 2.382 0 002.379-2.38.727.727 0 00-.728-.727z" fill="#fff"/><path d="M48.09 26.546l-2.048-.656a.856.856 0 01-.553-.56 13.206 13.206 0 00-1.936-3.83 14.055 14.055 0 00-1.293-1.526c.302-1.325.466-2.825.445-4.121-.03-1.854-.401-2.941-1.133-3.325-.394-.206-1.593-.834-8.084 2.137-.154.07-.297.157-.43.256a28.133 28.133 0 00-1.335-.324l-.165-.033a9.912 9.912 0 00.891-3.686.728.728 0 10-1.454-.065 8.454 8.454 0 01-2.474 5.612 8.425 8.425 0 01-3.065 1.958 21.1 21.1 0 00-5.857 0 8.424 8.424 0 01-3.065-1.958 8.42 8.42 0 01-2.483-5.994 8.42 8.42 0 012.483-5.993 8.42 8.42 0 015.994-2.483 8.42 8.42 0 015.993 2.483 8.474 8.474 0 011.58 2.182.728.728 0 101.3-.655 9.922 9.922 0 00-1.85-2.556 9.867 9.867 0 00-7.023-2.91 9.867 9.867 0 00-7.023 2.91 9.867 9.867 0 00-2.91 7.022 9.867 9.867 0 002.91 7.023 9.93 9.93 0 001.752 1.396c-.452.118-.9.25-1.345.398a.728.728 0 00.462 1.38 19.527 19.527 0 0112.308 0 .727.727 0 10.461-1.38c-.444-.148-.893-.28-1.346-.398h.001a9.924 9.924 0 003.02-2.953 28.092 28.092 0 011.376.304c-.008.032-.017.063-.023.096-.355 1.684-.332 3.173.068 4.426.36 1.127 1.01 2.04 1.93 2.713 1.085.794 2.395 1.137 3.582 1.137.893 0 1.716-.195 2.32-.537.685-.388 1.258-1.204 1.711-2.43a11.749 11.749 0 012.319 4.16 2.314 2.314 0 001.497 1.51l2.049.656c.537.172.898.667.898 1.231v3.396c0 .564-.361 1.059-.898 1.231l-3.3 1.057a2.25 2.25 0 00-1.258 1.022c-1.297 2.24-3.335 4.094-6.058 5.51a1.14 1.14 0 00-.599.804l-1.057 5.596a.327.327 0 01-.32.266h-3.437a.327.327 0 01-.321-.266l-.586-3.093a1.143 1.143 0 00-1.3-.92 30.42 30.42 0 01-4.533.338c-1.136 0-2.258-.063-3.335-.189a1.153 1.153 0 00-1.26.925l-.557 2.939a.327.327 0 01-.321.266h-3.436a.328.328 0 01-.322-.268L14.63 42.49a1.14 1.14 0 00-.587-.794c-4.643-2.479-7.097-6.62-7.097-11.975 0-2.706.592-5.099 1.76-7.112 1.09-1.879 2.68-3.432 4.73-4.617a.728.728 0 00-.73-1.26c-3.972 2.298-6.368 5.843-7.028 10.346-.07-.006-.14-.012-.21-.02a3.623 3.623 0 00-.266-1.451c-.422-1.05-1.29-1.807-2.21-1.93-.725-.097-1.415.21-1.893.843-.695.918-.581 1.644-.364 2.091.366.755 1.308 1.29 2.872 1.625-.043.065-.09.13-.142.194-.924 1.159-2.012 1.415-2.72 1.439a.764.764 0 00-.744.76v.004c0 .408.322.74.73.76.052.002.107.003.164.003.894 0 2.329-.33 3.708-2.058.217-.273.395-.561.531-.858.137.015.27.028.396.04a19.12 19.12 0 00-.039 1.2c0 3.03.723 5.732 2.147 8.031 1.313 2.12 3.194 3.854 5.591 5.16l.99 5.138c.159.84.895 1.45 1.75 1.45h3.437c.855 0 1.592-.61 1.751-1.45l.503-2.657a31.96 31.96 0 007.678-.144l.53 2.8a1.783 1.783 0 001.75 1.451h3.437c.856 0 1.592-.61 1.751-1.45l1.03-5.449c2.906-1.537 5.097-3.557 6.513-6.003a.796.796 0 01.443-.365l3.3-1.057A2.74 2.74 0 0050 32.56v-3.396a2.74 2.74 0 00-1.91-2.617zm-6.95-8.648c-.28 2.395-1.03 4.444-1.786 4.871-.858.486-2.839.58-4.326-.508-1.49-1.09-1.985-3.048-1.434-5.665a.878.878 0 01.5-.607c3.643-1.668 5.743-2.214 6.523-2.214.118 0 .206.013.264.036.235.25.542 1.67.26 4.087zM2.043 25.977c-.075-.156.103-.429.215-.578.179-.236.343-.284.468-.284.026 0 .05.002.073.005.335.045.803.413 1.052 1.03.058.146.134.387.152.687-1.007-.209-1.79-.51-1.96-.86z" fill="#fff"/><path d="M23.234 9.597V6.993c.898.065 1.232.475 1.54.475.384 0 .564-.487.564-.731 0-.629-1.232-.898-2.104-.924v-.346c0-.154-.192-.295-.385-.295-.218 0-.372.14-.372.295v.372c-1.218.128-2.437.77-2.437 2.386 0 1.642 1.283 2.104 2.437 2.514v3.015c-1.308-.103-1.654-1.001-2.078-1.001-.32 0-.59.423-.59.731 0 .629 1.078 1.488 2.668 1.514v.398c0 .153.154.295.372.295.193 0 .385-.142.385-.295v-.437c1.386-.192 2.335-1.064 2.335-2.642 0-1.745-1.219-2.31-2.335-2.72zm-.68-.243c-.68-.257-1.231-.526-1.231-1.257 0-.667.513-.988 1.231-1.078v2.335zm.603 4.374V11.02c.629.27 1.129.629 1.129 1.437 0 .731-.436 1.142-1.129 1.27z" fill="#fff"/></svg>