<svg width="50" height="50" fill="none" xmlns="http://www.w3.org/2000/svg"><path d="M42.675 7.32c-9.764-9.762-25.594-9.76-35.355.005-9.762 9.765-9.76 25.594.005 35.355 9.765 9.762 25.594 9.76 35.355-.005a25 25 0 00-.005-35.355zm-4.813 27.505a.051.051 0 01-.004.003v-.008l-1.266 1.258a6.667 6.667 0 01-6.292 1.8 22.15 22.15 0 01-6.433-2.883 29.722 29.722 0 01-5.075-4.092 29.953 29.953 0 01-3.792-4.6 23.33 23.33 0 01-2.85-5.767 6.667 6.667 0 011.667-6.808l1.483-1.483a1.058 1.058 0 011.497-.004c0 .002.002.003.003.004l4.683 4.683a1.058 1.058 0 010 1.5l-2.75 2.75a2.242 2.242 0 00-.233 2.917 32.163 32.163 0 003.292 3.841 31.962 31.962 0 004.333 3.642c.895.625 2.109.52 2.883-.25l2.659-2.7a1.058 1.058 0 011.496-.003l.004.003 4.691 4.7c.415.412.416 1.082.004 1.497z" fill="#fff"/></svg>