<svg width="44" height="45" fill="none" xmlns="http://www.w3.org/2000/svg"><path d="M25.874 17.546c-.95 0-1.874.188-2.744.558a.58.58 0 00-.304.754c.12.293.452.431.74.31a5.862 5.862 0 012.308-.47c3.305 0 5.993 2.738 5.993 6.104s-2.688 6.104-5.993 6.104c-3.304 0-5.993-2.738-5.993-6.104 0-.814.155-1.604.46-2.348a.58.58 0 00-.305-.753.562.562 0 00-.74.31 7.328 7.328 0 00-.546 2.79c0 4.002 3.196 7.256 7.124 7.256 3.928 0 7.124-3.254 7.124-7.255 0-4-3.196-7.256-7.124-7.256z" fill="#fff"/><path d="M25.874 29.524c2.557 0 4.636-2.118 4.636-4.722 0-2.604-2.08-4.722-4.636-4.722s-4.636 2.119-4.636 4.722c0 2.604 2.08 4.722 4.636 4.722zm0-8.292c1.933 0 3.506 1.602 3.506 3.57 0 1.969-1.573 3.57-3.506 3.57-1.933 0-3.505-1.601-3.505-3.57 0-1.968 1.572-3.57 3.505-3.57z" fill="#fff"/><path d="M33.975 14.783h-1.72L30.28 11.38a.563.563 0 00-.487-.283h-7.84c-.2 0-.385.108-.486.283l-1.974 3.402h-3.232v-.69c0-1.144-.913-2.074-2.035-2.074s-2.035.93-2.035 2.073v.692h-1.43c-1.58 0-2.867 1.31-2.867 2.92V31.9c0 1.61 1.286 2.92 2.867 2.92h23.213c1.58 0 2.867-1.31 2.867-2.92V17.703c0-1.61-1.286-2.92-2.867-2.92zm-11.698-2.534h7.194l1.47 2.534H20.808l1.47-2.534zm-8.955 1.842c0-.507.406-.92.905-.92s.905.413.905.92v.692h-1.81v-.691zm22.39 17.81c0 .975-.78 1.769-1.737 1.769H10.762c-.957 0-1.736-.794-1.736-1.769V17.703c0-.975.779-1.769 1.736-1.769h23.213c.957 0 1.736.794 1.736 1.769V31.9z" fill="#fff"/><path d="M25.874 23.68c.608 0 1.103.503 1.103 1.122a.57.57 0 00.565.576.57.57 0 00.565-.576c0-1.254-1.001-2.274-2.233-2.274a.57.57 0 00-.565.575.57.57 0 00.565.576zm0-14.098a.57.57 0 00.566-.576V5.933a.57.57 0 00-.566-.576.57.57 0 00-.565.576v3.073a.57.57 0 00.565.576zm2.69 0c.145 0 .29-.056.4-.168L31.04 7.3a.583.583 0 000-.815.558.558 0 00-.8 0L28.165 8.6a.584.584 0 000 .815c.11.112.255.168.4.168zm-5.78-.168a.559.559 0 00.8 0 .584.584 0 000-.815l-2.075-2.113a.558.558 0 00-.8 0 .583.583 0 000 .815l2.075 2.113zm-7.087 10.09h-2.94a.57.57 0 00-.565.576.57.57 0 00.565.576h2.94a.57.57 0 00.565-.576.57.57 0 00-.565-.576zm5.538 1.152a.565.565 0 00.4-.169.585.585 0 000-.814.565.565 0 00-.4-.169.564.564 0 00-.4.17.583.583 0 000 .813c.106.107.251.17.4.17z" fill="#fff"/><path d="M43.36 22.321c0 12.06-9.603 21.822-21.43 21.822S.5 34.382.5 22.32C.5 10.261 10.103.5 21.93.5s21.43 9.761 21.43 21.821z" stroke="#fff"/></svg>