<svg width="50" height="50" fill="none" xmlns="http://www.w3.org/2000/svg"><path d="M38.045 43.175a3.417 3.417 0 00-3.414 3.412A3.417 3.417 0 0038.045 50a3.417 3.417 0 003.415-3.413 3.417 3.417 0 00-3.415-3.412zm0 4.872a1.462 1.462 0 01-1.46-1.46 1.462 1.462 0 012.921 0c0 .805-.655 1.46-1.46 1.46zm5.763-42.491A18.784 18.784 0 0032.603.128 19.088 19.088 0 0020.64 2.685a.977.977 0 101.003 1.676 17.004 17.004 0 0120.783 2.577c4.49 4.485 6.01 10.982 4.304 16.819a8.787 8.787 0 00-1.8-3.95 14.542 14.542 0 00-4.243-11.134c-5.68-5.674-14.925-5.675-20.607 0a14.467 14.467 0 00-4.267 10.298 14.46 14.46 0 004.267 10.295 14.612 14.612 0 008.81 4.188 14.68 14.68 0 006.407-.779c-.376.863-.56 1.652-.63 2.765a17.017 17.017 0 01-16.325-4.436 17.063 17.063 0 01-3.457-4.962.964.964 0 00-.072-.163 16.958 16.958 0 01.974-15.684.977.977 0 10-1.672-1.009 19.06 19.06 0 00-1.318 16.955l-1.104 1.104a4.106 4.106 0 00-1.209 2.924c0 .734.19 1.436.543 2.054l-4.005 4.002-.001.001-2.706 2.705-.002.002-.002.002-2.419 2.417a4.277 4.277 0 00-1.258 3.046c0 1.154.447 2.236 1.258 3.047a4.281 4.281 0 003.048 1.257 4.273 4.273 0 003.045-1.257l2.397-2.395.027-.025.024-.027 6.688-6.684a4.14 4.14 0 002.056.546c1.06 0 2.12-.403 2.927-1.21l1.11-1.11a18.962 18.962 0 0011.48.906 3.42 3.42 0 003.35 2.752 3.417 3.417 0 003.415-3.412c0-1.308.014-1.333.774-2.63.245-.418.681-.761 1.143-1.125.188-.149.383-.302.573-.467 1.116-.966 1.813-2.018 2.244-3.09 4.998-7.497 4.004-17.535-2.386-23.918zm-31.38 34.688l-3.333-3.328 3.211-3.21 3.332 3.33-3.21 3.208zm-2.71 2.709l-3.332-3.33 1.328-1.327 3.333 3.329-1.33 1.328zm-3.114 3.11a2.333 2.333 0 01-1.663.686 2.34 2.34 0 01-2.353-2.35c0-.632.244-1.224.686-1.666l1.73-1.73 3.332 3.33-1.732 1.73zm14.12-9.794a2.188 2.188 0 01-3.09 0l-4.56-4.556a2.166 2.166 0 01-.636-1.543c0-.586.226-1.134.636-1.544l.612-.61a19.022 19.022 0 003.276 4.37 19.001 19.001 0 004.378 3.266l-.616.617zm.738-8.385a12.52 12.52 0 01-3.694-8.913c0-3.368 1.312-6.534 3.694-8.916 4.92-4.915 12.926-4.915 17.846 0a12.588 12.588 0 013.656 7.941 8.776 8.776 0 00-4.919-1.5c-2.363 0-4.58.923-6.242 2.6-1.665 1.68-2.582 3.928-2.582 6.33 0 1.973 1.5 3.52 3.415 3.52 1.913 0 3.411-1.547 3.411-3.52 0-1.18.878-2.105 1.998-2.105a2 2 0 011.999 1.996c0 1.114-.053 1.648-.56 2.085-.226.196-.44.373-.647.545-.645.536-1.228 1.02-1.793 1.733-4.93 3.067-11.458 2.324-15.582-1.796zm21.21 3.203c-.157.136-.326.269-.505.41-.556.439-1.187.936-1.618 1.672-.898 1.532-1.043 1.903-1.043 3.617a1.462 1.462 0 01-2.922 0c0-.207.002-.4.006-.581v-.01c.04-1.949.319-2.588 1.44-4.499.616-1.052 1.188-1.527 2.054-2.246.215-.178.437-.363.677-.57 1.236-1.067 1.236-2.45 1.236-3.563a3.955 3.955 0 00-3.952-3.95c-2.215 0-3.951 1.783-3.951 4.058 0 .879-.64 1.567-1.459 1.567-.819 0-1.46-.688-1.46-1.567 0-3.847 3.082-6.977 6.87-6.977 3.789 0 6.871 3.082 6.871 6.869 0 2.72-.65 4.39-2.244 5.77z" fill="#fff"/><path d="M17.65 7.224a.977.977 0 10-.688-1.668l-.003.002a.975.975 0 00.691 1.666z" fill="#fff"/></svg>