<svg width="50" height="50" fill="none" xmlns="http://www.w3.org/2000/svg"><g clip-path="url(#clip0)" fill="#fff"><path d="M1.204 39.86l3.743 2.495a2.492 2.492 0 00-.78 1.812V47.5a2.503 2.503 0 002.5 2.5H45a2.503 2.503 0 002.5-2.5v-3.333a2.504 2.504 0 00-1.667-2.357v-2.643h2.5a.833.833 0 100-1.667h-2.5v-1.667h2.5a.833.833 0 000-1.666h-2.5v-.834c0-.46.374-.832.834-.833h1.666a.833.833 0 000-1.666h-1.666a2.503 2.503 0 00-2.5 2.5v8.333H42.5V31.18a7.512 7.512 0 00-.761-3.305c3.117-2.163 2.36-6.963 2.324-7.179a.833.833 0 00-1.334-.52c-.009.007-.93.696-1.994.553-.668-.09-1.283-.503-1.828-1.229-.843-1.124-1.572-1.99-2.233-2.645A2.494 2.494 0 0037.5 15v-1.667c0-.758-.345-1.475-.937-1.949A9.42 9.42 0 0036.667 10c0-5.514-4.86-10-10.834-10C19.86 0 15 4.486 15 10c0 .463.035.926.103 1.384a2.496 2.496 0 00-.936 1.95V15a2.503 2.503 0 002.5 2.5h1.022a7.51 7.51 0 002.592 4.157l-6.4 2.56a7.46 7.46 0 00-4.706 6.617h-.008c-5.285 0-7.977 2.632-8.09 2.744a.833.833 0 00-.244.589v5c0 .278.14.538.371.693zm5.463 8.473a.834.834 0 01-.834-.833v-3.333c0-.46.374-.833.834-.834H10c.46 0 .833.374.833.834V47.5c0 .46-.373.833-.833.833H6.667zM18.377 40h2.26l3.157 1.579A.833.833 0 0025 40.833V32.5a.833.833 0 00-1.206-.745l-3.158 1.578h-2.303a7.31 7.31 0 01-1.363-.118l.359-1.549h17.008l2.142 9.282a2.5 2.5 0 01-.061 1.342l-1.353 4.116a.833.833 0 00-.001.517l.457 1.41H16.156l.468-1.403a.832.832 0 000-.527l-1.377-4.131a2.5 2.5 0 01-.072-1.318l.106-.46A34.03 34.03 0 0118.377 40zm2.456-5c.13 0 .257-.03.373-.088l2.127-1.064v5.637l-2.127-1.064a.832.832 0 00-.373-.088h-1.666V35h1.666zm20-3.82v6.32h-3.44l-1.58-6.854-.01-.032-1.65-6.055 3.014 1.205a5.805 5.805 0 013.666 5.416zm-1.666 12.987V47.5c0 .284.048.566.143.833h-2.037l-.54-1.665 1.268-3.857a4.165 4.165 0 00.102-2.238l-.325-1.406h3.055v2.643a2.504 2.504 0 00-1.666 2.357zm-6.954-20.384L33.91 30h-1.606l-1.892-6.938 1.802.72zm-3.53-.727L30.575 30H21.09l1.894-6.944a7.473 7.473 0 002.015.277h1.667c.681 0 1.359-.093 2.015-.277zM19.362 30h-1.605l1.695-6.217 1.802-.721L19.363 30zm-5.697 12.799l1.289 3.868-.556 1.666h-2.042c.095-.267.143-.549.143-.833v-3.333c0-.91-.495-1.748-1.29-2.188.345-.282 1.008-.651 2.278-1.034a4.168 4.168 0 00.178 1.854zM45.833 47.5c0 .46-.373.833-.833.833h-3.333a.834.834 0 01-.834-.833v-3.333c0-.46.374-.833.834-.834H45c.46 0 .833.374.833.834V47.5zm-8.259-27c.823 1.097 1.812 1.73 2.94 1.881.67.082 1.35.003 1.984-.232.005 1.277-.238 3.271-1.657 4.316a7.5 7.5 0 00-3.056-2.248l-6.4-2.56a7.51 7.51 0 002.593-4.157h.93c.73.6 1.604 1.584 2.666 3zM35 12.5c.46 0 .833.373.833.833V15c0 .46-.373.833-.833.833h-.833V12.5H35zM25.833 1.667C30.888 1.667 35 5.405 35 10c0 .278-.016.557-.047.833h-1.62c-6.04 0-8.328-4.356-8.421-4.539a.833.833 0 00-1.501.022c-1.113 2.4-2.768 3.836-5.197 4.517h-1.5a7.682 7.682 0 01-.047-.833c0-4.595 4.112-8.333 9.166-8.333zm-9.166 14.166a.834.834 0 01-.834-.833v-1.667c0-.46.374-.832.834-.833h.833v3.333h-.833zm2.5 0v-3.546c2.189-.725 3.862-2.044 5.076-4.004 1.195 1.523 3.77 3.924 8.257 4.192v3.358a5.837 5.837 0 01-2.972 5.08l-.052-.02-.026.066a5.798 5.798 0 01-2.783.708H25a5.798 5.798 0 01-2.783-.709l-.027-.066-.052.021a5.836 5.836 0 01-2.971-5.08zM14.5 25.764l3.014-1.205-1.651 6.056-.008.03-.47 2.031a18.637 18.637 0 01-.766-.404c-.96-.526-2.02-1.106-3.78-1.336a5.803 5.803 0 013.661-5.172zm-12 8.785c.71-.56 2.95-2.049 6.667-2.049 2.4 0 3.494.599 4.651 1.233.985.54 1.999 1.094 3.682 1.234v3.46c-1.19.156-2.37.376-3.535.66-2.596.649-4.12 1.497-4.617 2.58h-2.43L2.5 38.72v-4.172z"/><path d="M22.5 15a.833.833 0 100-1.667.833.833 0 000 1.667zm6.667 0a.833.833 0 100-1.667.833.833 0 000 1.667zm-5.373 3.245l1.667.834c.234.117.51.117.745 0l1.667-.834a.833.833 0 00-.734-1.496l-.012.006-1.294.647-1.294-.647a.833.833 0 00-.745 1.49z"/></g><defs><clipPath id="clip0"><path fill="#fff" d="M0 0h50v50H0z"/></clipPath></defs></svg>