<svg width="50" height="50" fill="none" xmlns="http://www.w3.org/2000/svg"><path d="M43.75 28.105a.781.781 0 00-.781.78v5.475h-1.243a4.938 4.938 0 00-9.813 0H15.625V11.704h27.344v2.457a.781.781 0 001.562 0v-3.238a.781.781 0 00-.781-.782H14.844a.781.781 0 00-.781.782v.78H5.116a3.558 3.558 0 00-3.553 3.554v1.134c0 .432.35.782.78.782h.91l-.597 7.16A3.55 3.55 0 000 27.757v6.603c0 .432.35.781.781.781h1.582a5.074 5.074 0 0010.117 0c.008 0 .013.004.02.004h1.563c0 .432.35.781.78.781h17.141a4.94 4.94 0 009.67 0h2.096c.431 0 .781-.35.781-.78v-6.26a.781.781 0 00-.781-.781zM7.422 38.266a3.516 3.516 0 110-7.031 3.516 3.516 0 010 7.031zm6.64-4.687H12.5a.71.71 0 00-.135.027 5.072 5.072 0 00-9.88-.027h-.922v-5.822a1.993 1.993 0 011.99-1.99h10.51v7.812zm0-9.375H4.235l.586-7.031h9.242v7.03zm0-8.594H3.126v-.353a1.993 1.993 0 011.99-1.99h8.947v2.343zm26.129 19.5a3.37 3.37 0 01-3.37 3.181h-.002a3.376 3.376 0 01-3.318-2.799.703.703 0 00-.04-.76 3.37 3.37 0 016.73.378z" fill="#fff"/><path d="M42.969 16.391H32.03a.781.781 0 000 1.563h10.94a.781.781 0 000-1.563zm1.562 8.594H27.344a.781.781 0 100 1.563H44.53a.781.781 0 000-1.563zm-1.562-4.687h-8.594a.781.781 0 000 1.562h8.594a.781.781 0 000-1.562zm3.125-2.344h1.562a.781.781 0 000-1.563h-1.562a.781.781 0 100 1.563zm2.344 7.031h-1.563a.781.781 0 000 1.563h1.563a.781.781 0 000-1.563zm.781-4.687h-3.125a.781.781 0 000 1.562h3.125a.781.781 0 000-1.562z" fill="#fff"/></svg>