<svg width="50" height="50" fill="none" xmlns="http://www.w3.org/2000/svg"><g clip-path="url(#clip0)" fill="#fff"><path d="M29.825 12.27l3.426 2.535c.386.285.19.916-.297.92l-1.075.006h-.003a.504.504 0 01-.504-.5 1.465 1.465 0 00-2.93.018 3.439 3.439 0 002.503 3.282v.071a1.465 1.465 0 102.93 0v-.074a3.413 3.413 0 001.52-.895 3.411 3.411 0 00.99-2.438v-.009a3.45 3.45 0 00-1.392-2.736l-3.426-2.535a.504.504 0 01.3-.908h1.077c.278 0 .505.226.505.503a1.465 1.465 0 102.929 0 3.439 3.439 0 00-2.504-3.304v-.07a1.465 1.465 0 00-2.93 0v.068a3.439 3.439 0 00-2.51 3.306c0 1.084.52 2.116 1.391 2.76z"/><path d="M32.41 24.738c6.821 0 12.371-5.549 12.371-12.37C44.781 5.549 39.231 0 32.41 0S20.037 5.549 20.037 12.369c0 6.82 5.55 12.369 12.372 12.369zm0-21.808c5.206 0 9.442 4.234 9.442 9.439s-4.236 9.44-9.443 9.44c-5.206 0-9.442-4.235-9.442-9.44 0-5.205 4.236-9.44 9.442-9.44zm16.583 25.116a4.778 4.778 0 00-6.504-.996l-5.573 3.73a4.593 4.593 0 00-4.046-2.426h-3.976a10.93 10.93 0 00-7.45-2.95c-2.073 0-4.09.585-5.834 1.694a10.909 10.909 0 00-3.737 4.008l-.747.456-.193-.566a1.465 1.465 0 00-1.86-.912L.991 32.846a1.465 1.465 0 00-.912 1.86l4.89 14.303a1.465 1.465 0 001.86.912l8.081-2.761c.722-.247 1.195-1.035.897-1.908l12.824-.397a16.653 16.653 0 009.687-3.102l9.67-6.88a4.777 4.777 0 001.005-6.827zM7.267 46.675L3.325 35.143l5.31-1.814 3.942 11.53-5.31 1.815zm39.023-14.19l-9.67 6.88a13.74 13.74 0 01-8.058 2.56l-13.747.425-2.718-7.949 1.652-1.01h.001a1.48 1.48 0 00.55-.605 7.908 7.908 0 017.145-4.454 7.88 7.88 0 015.782 2.492c.28.296.68.458 1.065.458h4.578a1.66 1.66 0 110 3.318h-8.265a1.465 1.465 0 000 2.93h8.265c1.227 0 2.38-.478 3.245-1.344a4.559 4.559 0 001.215-2.16l6.8-4.55.024-.016a1.852 1.852 0 012.136 3.026z"/></g><defs><clipPath id="clip0"><path fill="#fff" d="M0 0h50v50H0z"/></clipPath></defs></svg>